<?xml version="1.0" standalone="no"?>
<!DOCTYPE svg PUBLIC "-//W3C//DTD SVG 20010904//EN"
 "http://www.w3.org/TR/2001/REC-SVG-20010904/DTD/svg10.dtd">
<svg version="1.0" xmlns="http://www.w3.org/2000/svg"
 width="1536.000000pt" height="1536.000000pt" viewBox="0 0 1536.000000 1536.000000"
 preserveAspectRatio="xMidYMid meet">
<metadata>
Created by potrace 1.11, written by Peter Selinger 2001-2013
</metadata>
<g transform="translate(0.000000,1536.000000) scale(0.100000,-0.100000)"
fill="#000000" stroke="none">
<path d="M7360 14710 c0 -5 9 -10 20 -10 11 0 20 5 20 10 0 6 -9 10 -20 10
-11 0 -20 -4 -20 -10z"/>
<path d="M7600 14710 c0 -5 5 -10 10 -10 6 0 10 5 10 10 0 6 -4 10 -10 10 -5
0 -10 -4 -10 -10z"/>
<path d="M7860 14710 c0 -6 30 -10 70 -10 40 0 70 4 70 10 0 6 -30 10 -70 10
-40 0 -70 -4 -70 -10z"/>
<path d="M8320 14710 c0 -7 260 -10 760 -10 500 0 760 3 760 10 0 7 -260 10
-760 10 -500 0 -760 -3 -760 -10z"/>
<path d="M7600 14637 c0 -4 27 -7 60 -6 33 1 58 4 56 7 -9 8 -116 7 -116 -1z"/>
<path d="M7361 14624 c0 -11 3 -14 6 -6 3 7 2 16 -1 19 -3 4 -6 -2 -5 -13z"/>
<path d="M7450 14620 c-1 -23 -2 -23 -9 -5 -7 17 -10 15 -20 -18 -9 -26 -18
-37 -32 -37 -17 0 -19 -8 -19 -71 l0 -71 30 32 30 32 0 -41 c0 -37 -2 -41 -25
-41 -22 0 -25 -4 -25 -39 0 -22 5 -42 13 -44 6 -3 1 -6 -13 -7 -24 -1 -24 -1
-6 -15 19 -14 18 -15 -11 -15 l-31 0 5 50 c3 28 1 50 -3 50 -5 0 -9 28 -10 63
0 89 -13 154 -29 161 -13 4 -15 -11 -15 -95 l0 -101 -40 -38 c-22 -21 -40 -41
-40 -44 0 -3 14 -6 30 -6 17 0 30 5 30 10 0 6 5 10 10 10 14 0 12 -27 -2 -33
-10 -4 -10 -6 0 -6 6 -1 12 -5 12 -11 0 -6 -47 -10 -120 -10 -68 0 -120 4
-120 9 0 6 15 12 33 14 l32 4 -33 1 c-22 1 -31 6 -26 14 5 8 3 8 -7 2 -18 -11
-148 -32 -155 -25 -10 10 -79 6 -91 -6 -21 -19 9 -23 174 -23 86 0 153 -3 149
-7 -3 -4 -82 -6 -174 -5 -92 1 -180 -2 -197 -7 -16 -5 -24 -10 -17 -10 9 -1
12 -45 12 -183 l0 -183 -90 3 -90 3 0 170 c0 146 -2 169 -15 169 -14 0 -16
-21 -13 -164 2 -118 0 -167 -9 -175 -7 -6 -41 -11 -76 -11 -103 0 -110 -10
-112 -156 -3 -235 -2 -226 -27 -222 -23 3 -23 6 -26 153 -3 167 -6 195 -26
195 -9 0 -16 -20 -20 -60 -4 -37 -12 -60 -19 -60 -7 0 -19 -9 -27 -20 -8 -11
-21 -20 -30 -20 -9 0 -22 -9 -30 -20 -8 -11 -22 -20 -31 -20 -9 0 -19 -9 -22
-20 -4 -16 0 -20 17 -20 28 0 36 -8 29 -26 -7 -19 -43 -18 -43 1 0 8 -4 15
-10 15 -5 0 -10 -16 -10 -35 0 -38 7 -42 90 -48 25 -2 16 -3 -20 -1 -36 2 -73
4 -82 4 -10 1 -15 7 -11 16 3 9 -2 14 -16 14 -15 0 -21 -6 -21 -22 0 -14 3
-18 8 -12 5 9 11 8 20 -2 11 -12 9 -14 -12 -14 -13 0 -27 -7 -30 -16 -3 -9 -6
-94 -6 -190 0 -148 -2 -174 -15 -174 -13 0 -15 27 -15 179 0 109 -4 182 -10
186 -5 3 -10 -1 -10 -10 0 -9 -4 -13 -10 -10 -6 4 -11 -28 -12 -87 -4 -146 2
-242 15 -250 7 -4 -10 -8 -38 -8 -33 0 -45 3 -36 9 11 7 13 38 8 167 -2 88 -8
167 -12 177 -9 21 -40 19 -40 -3 0 -8 4 -84 9 -168 9 -178 8 -181 -79 -182
-27 0 -45 4 -39 8 11 7 26 304 17 330 -8 20 -32 14 -38 -11 -3 -12 -5 -90 -3
-172 l3 -150 -32 -2 c-18 -2 -41 -3 -50 -4 -10 -1 -28 1 -39 4 -21 5 -22 2
-24 -101 -3 -94 -7 -233 -9 -269 -1 -21 -28 -15 -34 7 -3 11 0 20 6 20 8 0 8
3 2 8 -6 4 -11 74 -13 162 -2 85 -6 158 -10 162 -16 17 -35 -12 -35 -53 0 -30
-5 -49 -18 -60 -20 -17 -26 -49 -9 -49 6 0 10 -13 10 -30 0 -20 -5 -30 -15
-30 -11 0 -15 -11 -15 -40 0 -31 -4 -40 -17 -42 -10 0 2 -4 27 -8 l45 -7 -51
-1 c-42 -2 -51 1 -51 16 0 9 4 22 9 28 5 7 3 14 -6 17 -12 5 -14 23 -11 89 5
109 -2 148 -26 148 -11 0 -19 -3 -19 -7 -1 -5 -2 -64 -4 -133 -2 -69 -4 -131
-5 -137 0 -7 -13 -13 -28 -14 -30 -1 -25 -3 20 -13 34 -8 36 -36 3 -36 -35 0
-57 -10 -49 -23 4 -6 0 -8 -10 -4 -22 8 -22 -2 1 -19 16 -13 16 -13 0 -14 -19
0 -25 -20 -7 -20 8 0 8 -4 0 -14 -9 -10 -12 -56 -10 -148 2 -132 2 -133 -20
-136 -13 -2 -28 1 -34 7 -8 8 -8 11 0 11 6 0 11 32 12 80 1 56 -2 80 -10 80
-8 0 -10 23 -5 90 7 87 7 90 -14 90 -20 0 -21 -3 -20 -162 0 -90 1 -171 0
-181 0 -15 -8 -18 -50 -16 -54 3 -67 15 -22 22 19 3 14 5 -18 7 -25 1 -37 4
-27 7 15 4 17 20 17 164 l0 159 -25 0 -25 0 0 -181 0 -181 -29 5 c-16 3 -40 9
-53 12 -20 5 -26 2 -31 -14 -3 -12 -13 -21 -22 -21 -9 0 -14 4 -10 9 8 14 -9
21 -25 11 -13 -8 -15 -117 -15 -777 l0 -768 28 3 c15 1 27 -1 28 -5 0 -4 2
-17 4 -28 14 -91 17 -145 6 -145 -8 0 -12 -66 -13 -232 -1 -128 -4 -179 -5
-114 -4 121 -12 150 -42 144 -13 -3 -15 -45 -13 -363 2 -262 6 -364 15 -375
30 -37 37 -62 33 -117 -3 -47 -2 -51 4 -18 6 33 7 26 8 -42 1 -45 -2 -83 -6
-85 -5 -1 -12 -27 -15 -56 -4 -32 -2 -50 3 -47 14 9 12 -9 -2 -23 -36 -36 -44
11 -41 244 l1 122 -26 4 c-65 9 -63 14 -61 -184 1 -168 3 -181 20 -185 18 -5
19 -21 19 -339 0 -216 4 -334 10 -334 6 0 10 113 10 319 l0 319 33 4 32 3 0
-320 c0 -297 1 -320 18 -323 16 -3 17 17 17 312 0 312 0 316 21 316 11 0 18 3
15 8 -2 4 48 8 112 9 64 0 109 -1 100 -4 -16 -4 -18 -34 -22 -361 -3 -196 -6
-377 -7 -402 -1 -25 2 -78 6 -119 7 -63 6 -75 -9 -83 -18 -10 -23 -88 -5 -88
6 0 4 -7 -5 -15 -8 -8 -23 -15 -33 -14 -16 0 -16 1 2 9 17 8 16 9 -10 11 -23
1 -25 3 -8 6 14 3 20 9 16 19 -7 20 -26 17 -43 -6 -10 -14 -26 -20 -53 -20
-21 0 -36 3 -34 8 3 4 -10 8 -29 9 -19 2 -34 -2 -34 -7 0 -6 7 -10 15 -10 8 0
15 -4 15 -10 0 -5 -9 -10 -20 -10 -11 0 -20 5 -20 10 0 15 -39 12 -56 -4 -8
-8 -14 -27 -14 -43 0 -22 -2 -25 -10 -13 -5 8 -10 32 -10 53 0 20 -3 37 -6 37
-13 0 -34 -30 -34 -50 0 -19 -21 -50 -33 -50 -3 0 -7 9 -10 21 -4 15 -12 20
-28 17 -22 -3 -23 -6 -26 -143 -2 -76 -8 -144 -13 -149 -7 -7 -10 -3 -10 12 0
12 -4 22 -10 22 -21 0 -10 -71 15 -96 14 -14 25 -30 26 -37 0 -7 1 -88 2 -182
2 -166 3 -170 25 -180 22 -10 22 -12 22 -198 0 -174 1 -188 18 -185 15 3 17
21 20 186 2 179 -1 206 -31 209 -30 4 -30 10 -20 184 6 108 6 187 1 208 -6 22
-6 37 1 44 6 6 9 36 6 71 -2 34 -2 52 1 41 4 -10 19 -31 35 -46 16 -15 29 -34
29 -43 0 -9 5 -16 10 -16 6 0 10 -14 10 -31 0 -26 3 -31 20 -26 15 4 20 0 20
-14 0 -16 4 -17 25 -9 l25 10 0 -201 c0 -110 -4 -198 -8 -195 -5 3 -6 -8 -4
-25 6 -44 22 -35 23 14 1 23 4 32 6 19 2 -12 9 -20 14 -17 5 4 9 -70 9 -184
l0 -191 -26 0 c-16 0 -24 -5 -22 -12 6 -16 48 -23 48 -9 0 6 5 11 10 11 6 0 9
-5 8 -11 -4 -15 29 -21 67 -12 29 7 28 8 -15 14 -42 6 -40 6 23 7 66 2 83 -7
50 -27 -14 -8 -15 -10 -3 -11 13 0 15 -20 12 -130 -2 -86 0 -130 7 -130 6 0
11 -9 11 -20 0 -11 -4 -20 -10 -20 -6 0 -10 -53 -10 -139 0 -100 -3 -140 -12
-143 -7 -3 19 -35 57 -73 38 -38 70 -64 73 -57 2 8 35 12 103 12 59 0 99 4 99
10 0 6 -9 10 -20 10 -17 0 -20 7 -20 50 0 43 -3 50 -20 50 -19 0 -20 7 -20
121 0 109 2 120 18 117 10 -2 18 -14 20 -31 3 -23 8 -27 33 -27 22 0 29 5 29
19 0 24 25 47 35 30 4 -6 11 -94 16 -196 4 -102 10 -188 13 -191 17 -16 21 27
21 201 l0 192 38 3 37 3 0 -40 c0 -23 5 -41 11 -41 7 0 10 15 7 40 -2 22 -1
36 3 32 4 -4 9 -34 13 -67 4 -41 3 -55 -4 -45 -8 12 -10 9 -10 -12 0 -16 5
-28 10 -28 6 0 10 -18 10 -40 0 -22 -4 -40 -10 -40 -5 0 -10 -12 -10 -27 0
-22 2 -25 10 -13 6 10 7 -6 4 -45 -3 -33 -8 -107 -11 -165 -3 -58 -8 -107 -12
-110 -5 -3 -11 -31 -15 -62 -5 -48 -4 -58 9 -58 12 0 15 -15 15 -80 0 -73 -2
-80 -20 -80 -18 0 -20 -7 -20 -80 0 -63 -3 -80 -14 -80 -21 0 -30 -20 -17 -33
8 -8 11 -8 11 1 0 17 28 15 46 -2 8 -8 14 -23 14 -33 0 -15 2 -16 10 -3 8 12
10 11 10 -7 0 -16 6 -23 20 -23 11 0 20 5 20 11 0 6 8 7 23 3 12 -5 34 -9 50
-10 15 -1 44 -3 65 -4 30 -2 33 -3 14 -8 -13 -4 -23 -11 -23 -17 0 -6 -24 -10
-54 -10 -30 0 -55 -3 -55 -7 0 -13 43 -20 91 -15 24 3 40 3 34 1 -11 -4 -11
-240 0 -274 4 -11 12 -20 20 -20 18 0 27 79 23 203 -3 91 -2 97 17 98 18 0 18
1 -2 9 -27 11 -30 36 -5 42 30 8 42 -2 36 -28 -4 -16 -2 -24 7 -24 10 0 10 -3
3 -8 -13 -8 -25 -322 -12 -322 4 0 8 -9 8 -20 0 -13 7 -20 20 -20 11 0 20 -4
20 -10 0 -5 14 -10 30 -10 23 0 30 -4 30 -20 0 -11 5 -20 10 -20 6 0 10 -13
10 -29 0 -22 5 -30 24 -33 40 -8 56 8 56 57 0 25 -4 45 -10 45 -5 0 -10 9 -10
20 0 11 -5 20 -11 20 -5 0 -8 4 -5 9 4 5 0 12 -6 14 -8 4 -7 6 4 6 9 1 19 -5
21 -11 4 -10 6 -10 6 0 1 6 6 12 12 12 5 0 8 -4 5 -9 -7 -11 40 -32 59 -25 8
4 15 12 15 20 0 8 7 14 15 14 9 0 15 -9 15 -25 0 -14 5 -25 10 -25 6 0 10 -53
11 -137 0 -132 10 -198 22 -163 4 8 8 83 11 165 7 189 6 185 31 185 19 0 22
-6 23 -52 0 -29 6 -54 11 -56 6 -2 11 -17 11 -33 0 -16 5 -29 10 -29 14 0 12
-38 -2 -42 -16 -6 -28 -130 -14 -141 8 -6 7 -10 -1 -14 -20 -7 -15 -34 9 -54
27 -24 17 -36 -17 -21 -19 9 -25 19 -25 42 0 16 -4 30 -10 30 -5 0 -10 -18
-10 -40 0 -22 5 -40 10 -40 6 0 10 -9 10 -20 0 -11 -4 -20 -10 -20 -6 0 -10
-87 -10 -240 0 -153 4 -240 10 -240 6 0 10 -33 10 -80 0 -47 4 -80 10 -80 6 0
10 9 10 20 0 13 7 20 20 20 13 0 20 -7 20 -20 0 -17 7 -20 39 -20 30 0 40 4
44 20 3 11 12 20 21 20 12 0 16 11 16 49 0 30 -5 52 -12 55 -10 5 -10 7 0 12
9 4 12 63 12 245 0 232 1 239 20 239 11 0 20 3 20 6 0 12 -28 32 -51 36 -16 2
-24 9 -23 21 1 9 -4 17 -12 17 -22 0 -16 -37 9 -55 15 -12 18 -19 10 -22 -10
-4 -13 -62 -13 -243 0 -181 -3 -240 -12 -244 -10 -5 -10 -7 0 -12 6 -3 12 -14
12 -25 0 -10 5 -19 10 -19 16 0 11 -32 -7 -46 -24 -18 -71 -18 -89 0 -16 17
-19 46 -4 46 6 0 10 9 10 19 0 11 6 22 13 25 10 5 10 7 0 12 -16 7 -19 524 -3
524 6 0 10 9 10 20 0 13 -7 20 -20 20 -11 0 -20 5 -20 11 0 6 22 10 58 8 32
-1 64 1 70 5 8 5 10 2 6 -8 -4 -11 0 -16 11 -16 9 0 14 4 10 9 -8 14 21 19 95
17 l65 -1 -2 -372 c-2 -205 1 -373 6 -373 27 0 30 39 33 386 l3 359 55 -3 c30
-2 58 -8 62 -15 9 -15 11 -333 1 -324 -3 4 -6 65 -6 135 1 71 -2 144 -6 163
-8 33 -8 32 -16 -25 -4 -33 -5 -108 -1 -168 4 -71 3 -108 -4 -108 -6 0 -10 59
-10 163 -1 113 -4 157 -11 145 -8 -14 -8 -274 0 -660 0 -26 6 -38 18 -41 10
-2 -2 -3 -27 -1 -35 2 -39 1 -20 -6 40 -13 100 -12 100 3 0 9 2 9 8 0 6 -9 27
-11 73 -7 l66 5 6 -122 c4 -67 7 -150 7 -185 0 -60 11 -87 26 -63 4 7 7 91 8
188 l1 176 48 1 47 1 0 -184 c0 -106 4 -183 9 -183 5 0 11 10 13 22 2 13 10
24 19 26 13 2 15 -40 16 -395 1 -282 4 -398 12 -401 8 -3 11 -62 11 -189 0
-149 -3 -188 -14 -197 -12 -9 -16 -77 -22 -373 -5 -269 -4 -363 5 -363 8 0 11
-55 11 -191 0 -124 3 -188 10 -184 7 4 10 -63 10 -194 0 -168 -2 -201 -14
-201 -20 0 -31 -21 -17 -30 7 -4 11 -22 9 -41 -2 -29 -7 -34 -30 -37 -27 -3
-28 -2 -28 45 0 45 -21 96 -34 83 -2 -3 -6 -87 -8 -187 -3 -167 -2 -182 16
-202 15 -16 21 -18 28 -9 6 10 8 10 8 1 0 -16 47 -17 52 -1 2 6 10 8 16 4 17
-10 15 -26 -3 -20 -8 4 -15 1 -15 -5 0 -6 17 -11 38 -11 24 0 32 -3 24 -9 -11
-7 -11 -11 2 -24 9 -8 16 -23 16 -31 0 -18 15 -21 25 -6 4 7 12 7 25 0 24 -13
30 -13 30 0 0 6 -9 10 -20 10 -11 0 -20 5 -20 10 0 6 10 10 21 10 31 0 99 -22
99 -32 0 -12 -14 -10 -28 4 -9 9 -12 7 -12 -10 0 -18 6 -22 30 -22 17 0 30 5
30 10 0 6 8 10 18 10 10 0 23 5 30 12 9 9 12 7 12 -10 0 -15 6 -22 20 -22 17
0 20 -7 20 -40 0 -22 -4 -40 -10 -40 -6 0 -10 -26 -10 -59 0 -51 -3 -59 -21
-64 -13 -4 -19 -10 -14 -19 3 -7 0 -5 -8 5 -9 11 -16 14 -19 7 -3 -11 -73 -14
-205 -10 -26 1 -26 2 -10 14 21 17 22 46 1 46 -9 0 -18 9 -21 20 -7 27 -21 25
-26 -2 l-4 -23 -8 22 c-6 20 -14 23 -56 23 -27 0 -49 -4 -49 -10 0 -5 -4 -10
-10 -10 -5 0 -10 9 -10 20 0 11 -4 20 -10 20 -5 0 -10 -4 -10 -10 0 -5 -9 -10
-20 -10 -18 0 -20 -7 -20 -60 0 -33 -4 -60 -10 -60 -5 0 -10 -9 -10 -20 0 -11
-4 -20 -10 -20 -5 0 -10 -9 -10 -20 0 -11 5 -20 10 -20 6 0 10 -33 10 -80 l0
-80 50 0 51 0 -3 113 c-2 101 0 116 16 133 14 13 21 15 24 6 2 -6 14 -12 27
-12 31 0 35 -15 35 -136 l0 -104 385 0 385 0 0 294 0 294 -86 -1 -87 -2 2
-148 c2 -123 0 -150 -13 -163 -15 -14 -16 -1 -14 150 l3 166 -82 0 -83 0 -1
1508 c-1 829 -4 1597 -8 1707 l-6 200 -182 3 -183 2 0 373 c0 277 3 376 12
385 9 9 192 12 760 12 l748 0 0 -227 c1 -380 3 -507 7 -520 4 -10 51 -13 189
-13 l184 0 2 -562 3 -563 185 0 185 0 3 175 c1 96 6 178 10 181 4 4 169 10
367 14 198 4 363 9 367 11 3 2 5 77 3 166 -1 88 0 169 3 180 4 17 18 18 183
18 98 0 180 4 184 9 3 5 7 91 8 191 3 144 6 184 18 191 8 5 39 9 69 7 30 -1
105 -1 167 0 l112 2 6 183 c3 100 7 264 10 365 l6 182 184 0 185 0 2 191 3
191 157 -1 c86 -1 167 1 181 4 l25 7 7 364 c4 201 5 368 1 371 -8 9 -350 8
-364 -1 -9 -5 -12 -107 -12 -372 l0 -364 -127 -1 c-71 0 -147 0 -170 1 -87 3
-83 12 -83 -196 l0 -184 -172 0 c-95 0 -179 -4 -185 -8 -9 -6 -13 -60 -15
-192 l-3 -185 -187 -3 -188 -2 -2 -193 -3 -192 -180 0 -180 0 3 -149 c2 -82 1
-165 -3 -183 l-6 -33 -189 0 -190 0 0 62 c0 122 -9 298 -15 308 -4 7 -68 10
-183 10 -97 -1 -177 2 -178 7 -4 16 -10 1468 -6 1486 3 15 20 17 188 17 l184
0 0 368 c0 273 3 371 12 380 8 8 65 12 190 12 l178 0 2 563 c2 309 3 895 4
1302 0 407 1 750 2 763 l2 22 183 -2 182 -3 3 -383 2 -383 548 1 c301 0 555 1
565 0 16 0 17 -16 17 -185 l0 -185 188 -2 187 -3 6 -635 c3 -349 7 -771 8
-937 l1 -303 178 0 179 0 6 293 c4 160 7 498 7 750 l0 457 190 0 190 0 1 -22
c0 -13 1 -91 1 -174 0 -83 3 -156 6 -161 5 -7 138 -13 380 -18 l372 -8 0 -183
0 -184 189 0 c187 0 189 0 195 -22 3 -13 6 -95 6 -184 l0 -161 263 -6 c144 -4
310 -7 370 -7 l107 0 0 -179 c0 -131 3 -181 13 -189 7 -6 155 -13 374 -17
l363 -8 2 -181 3 -181 143 -3 142 -3 0 201 0 200 -77 1 c-198 2 -233 18 -47
21 l129 2 -112 3 c-107 3 -150 17 -80 26 23 3 19 4 -18 6 -27 1 -45 5 -38 9 7
5 13 39 15 89 2 44 6 77 9 71 7 -11 19 27 18 57 -1 16 -2 16 -9 -5 l-8 -25 -1
23 c-1 16 6 26 19 29 11 3 20 9 20 13 0 15 -52 50 -75 50 -12 0 -24 2 -27 6
-3 3 -161 6 -352 7 -233 1 -346 5 -347 12 0 5 0 71 1 145 1 74 1 142 1 150 0
25 -13 74 -24 88 -5 6 -17 12 -26 11 -10 0 -11 -2 -3 -6 6 -2 12 -11 12 -19 0
-12 -4 -12 -20 -2 -11 7 -20 21 -20 30 0 15 9 18 50 18 43 0 50 3 50 20 0 16
-7 20 -30 20 -16 0 -30 -4 -30 -10 0 -6 -30 -10 -70 -10 -40 0 -70 4 -70 10 0
6 -9 10 -20 10 -13 0 -20 7 -20 20 0 13 -7 20 -20 20 -11 0 -20 5 -20 10 0 6
-9 10 -20 10 -21 0 -24 10 -20 83 1 31 -2 37 -19 37 -14 0 -21 6 -21 20 0 11
-5 20 -11 20 -6 0 -9 7 -5 15 3 9 -3 24 -14 35 -16 16 -20 17 -20 5 0 -15 -20
-17 -31 -2 -3 4 -159 9 -347 11 -188 1 -345 6 -349 9 -3 4 17 7 45 7 29 0 52
5 52 10 0 6 -4 10 -10 10 -5 0 -10 10 -11 23 0 12 -3 16 -6 10 -2 -7 -9 -13
-15 -13 -8 0 -9 37 -5 120 7 115 6 120 -13 120 -16 0 -20 -7 -20 -34 0 -29 -3
-33 -20 -29 -14 4 -20 14 -20 35 0 22 4 29 15 25 25 -10 28 13 5 33 -13 11
-20 26 -16 35 3 8 1 15 -4 15 -6 0 -10 -5 -10 -12 0 -6 -28 17 -62 53 -35 37
-63 59 -65 52 -4 -10 -41 -13 -144 -13 -76 0 -139 4 -139 8 0 4 9 14 20 22 28
20 25 30 -10 30 -16 0 -30 -4 -30 -10 0 -5 -22 -10 -50 -10 -27 0 -50 5 -50
10 0 6 -12 10 -26 10 -14 0 -32 7 -41 15 -14 14 -13 18 6 34 12 10 21 21 21
25 0 12 -58 6 -62 -6 -5 -14 -58 34 -58 52 0 6 9 20 20 32 20 21 20 21 0 35
-11 8 -29 16 -41 18 -12 2 -28 10 -36 16 -9 8 -79 15 -196 20 -100 4 -182 8
-183 8 -4 3 9 116 18 163 12 65 37 111 38 71 0 -16 6 -23 20 -23 11 0 20 5 20
10 0 6 14 10 30 10 17 0 30 5 30 10 0 6 14 10 30 10 17 0 30 5 30 10 0 6 14
10 30 10 17 0 30 5 30 10 0 6 7 10 16 10 9 0 29 14 44 30 19 20 30 26 33 18 3
-7 6 -4 6 7 1 11 10 27 21 35 11 8 20 22 20 32 0 10 5 18 10 18 6 0 10 11 10
24 0 14 5 28 10 31 6 3 10 15 10 26 0 10 5 19 10 19 6 0 10 14 10 30 0 17 5
30 11 30 8 0 10 14 6 40 -5 37 -3 40 20 40 32 0 28 32 -6 40 -14 3 -26 11 -28
17 -3 9 4 9 29 2 18 -6 41 -13 51 -16 9 -3 17 -1 17 5 0 5 -21 13 -46 17 -49
7 -64 26 -45 56 6 11 8 19 3 19 -4 0 -13 -9 -20 -21 -10 -16 -10 -24 -1 -35
14 -17 -2 -19 -31 -4 -19 10 -19 11 0 30 20 20 20 32 18 345 -2 179 -1 325 2
325 3 0 4 608 2 1352 -1 898 1 1355 8 1362 6 6 10 75 10 167 l0 157 -30 4
c-21 3 -27 1 -20 -6 13 -13 13 -156 0 -156 -6 0 -10 31 -10 73 0 39 -5 79 -10
87 -6 9 -10 11 -10 3 0 -7 -7 -10 -15 -7 -12 5 -15 -2 -15 -32 0 -22 -5 -46
-10 -54 -7 -11 -10 0 -10 36 0 37 4 54 15 58 8 3 15 13 15 23 0 17 -11 18
-142 15 -134 -3 -294 7 -255 15 9 3 17 12 18 21 0 14 2 13 10 -3 7 -16 8 -13
4 13 -2 17 0 32 5 32 6 0 10 34 10 78 0 48 -4 72 -9 63 -5 -8 -9 42 -10 127 0
115 2 141 14 146 11 4 15 21 15 61 0 35 -4 54 -10 50 -5 -3 -10 3 -10 14 0 10
5 21 12 23 10 4 9 14 -1 48 -9 32 -10 45 -2 48 25 8 9 22 -23 20 -19 -1 -32
-6 -30 -10 3 -4 0 -8 -5 -8 -6 0 -11 3 -11 8 0 4 -49 8 -109 8 -60 1 -114 5
-120 8 -6 4 -11 18 -11 32 0 13 -4 24 -10 24 -15 0 -12 97 3 104 10 5 10 7 0
12 -7 3 -13 13 -13 21 0 9 -8 23 -19 32 -10 9 -21 25 -24 36 -3 11 -4 -46 -4
-127 1 -81 -2 -143 -7 -139 -4 5 -6 88 -5 184 2 97 2 174 1 172 -2 -2 -7 -37
-12 -77 l-7 -73 -3 80 c-1 44 -5 70 -7 57 -5 -25 -23 -20 -23 7 0 19 -38 41
-70 41 -11 0 -20 -4 -20 -10 0 -6 -27 -9 -62 -9 -54 2 -58 3 -24 8 35 5 38 7
23 20 -10 7 -17 20 -17 27 0 11 -18 14 -75 14 l-75 0 0 50 0 50 75 0 c47 0 75
4 75 11 0 7 -27 9 -79 7 l-80 -3 6 43 c4 28 2 42 -6 42 -6 0 -11 7 -11 15 0 8
5 15 11 15 6 0 9 12 7 28 -2 19 -8 26 -20 24 -13 -2 -18 4 -18 23 0 16 -6 25
-16 25 -14 0 -14 -3 -4 -15 8 -10 9 -15 2 -15 -6 0 -16 8 -21 18 -6 9 -11 12
-11 6 0 -7 -42 -11 -120 -11 -97 -1 -120 2 -120 13 0 18 62 19 91 2 17 -10 23
-10 26 0 3 7 23 12 46 13 38 1 39 1 15 9 -33 10 -58 33 -58 54 0 9 -4 16 -10
16 -5 0 -10 9 -10 20 0 11 -4 20 -10 20 -15 0 -13 -97 3 -103 6 -3 -19 -5 -58
-5 -38 1 -53 3 -32 5 32 4 37 8 37 30 0 14 -10 34 -21 44 -19 16 -21 26 -16
71 4 36 3 48 -3 38 -8 -13 -10 -13 -10 1 0 9 -14 32 -31 50 -25 26 -32 30 -40
18 -5 -9 -7 1 -4 29 3 34 1 43 -10 38 -7 -2 -16 2 -19 10 -4 11 -40 14 -188
16 l-183 2 163 3 c96 2 162 7 162 13 0 6 10 10 23 11 21 1 21 1 -3 9 -14 4
-38 8 -55 8 -22 -1 -24 -2 -7 -5 47 -9 19 -23 -48 -23 -63 0 -91 11 -57 23 6
2 10 7 7 9 -8 8 -140 -14 -140 -24 0 -4 -64 -7 -142 -7 -108 1 -131 4 -93 9
28 5 88 9 135 10 80 2 82 3 45 12 -22 6 -43 16 -47 22 -6 8 -10 7 -16 -2 -5
-7 -33 -13 -69 -14 -63 -2 -93 13 -93 45 0 9 -6 18 -12 21 -10 5 -10 7 0 12 8
4 12 31 12 85 l0 79 35 0 c19 0 35 5 35 10 0 6 -14 10 -31 10 -18 0 -37 7 -44
16 -13 18 -66 26 -76 11 -3 -4 -13 -1 -23 8 -15 15 -16 15 -17 -2 -1 -13 -3
-11 -9 7 -4 14 -8 20 -9 14 -1 -12 -31 -15 -31 -3 0 6 -97 3 -162 -6 -16 -2
-30 1 -34 6 -3 5 -12 9 -20 9 -9 0 -12 -5 -8 -12 4 -6 3 -8 -4 -4 -11 7 -75 7
-232 3 -47 -2 -88 1 -91 6 -3 4 -17 4 -30 -1 -13 -5 -44 -8 -69 -6 -25 2 -67
6 -95 8 l-50 4 45 -7 c25 -5 -281 -8 -680 -8 -399 0 -714 4 -700 8 22 8 22 8
-5 4 -16 -3 -88 -8 -159 -12 -110 -5 -128 -4 -121 8 7 11 6 12 -6 2 -9 -7 -54
-11 -130 -10 l-116 2 5 -160 c3 -122 2 -157 -7 -149 -11 10 -14 73 -10 234 0
25 -4 56 -10 70 l-10 25 -1 -25z m2759 -109 c-4 -31 -7 -65 -6 -76 0 -11 -1
-45 -3 -75 -3 -35 -6 -7 -10 75 -6 145 -4 160 14 143 9 -8 10 -28 5 -67z m18
-103 c-3 -7 -5 -2 -5 12 0 14 2 19 5 13 2 -7 2 -19 0 -25z m-2737 -118 c0 -5
-2 -10 -4 -10 -3 0 -8 5 -11 10 -3 6 -1 10 4 10 6 0 11 -4 11 -10z m2715 0 c3
-5 1 -10 -4 -10 -6 0 -11 5 -11 10 0 6 2 10 4 10 3 0 8 -4 11 -10z m93 -7
c-10 -2 -28 -2 -40 0 -13 2 -5 4 17 4 22 1 32 -1 23 -4z m-2890 -20 c-10 -2
-28 -2 -40 0 -13 2 -5 4 17 4 22 1 32 -1 23 -4z m3549 -360 c-2 -21 -4 -6 -4
32 0 39 2 55 4 38 2 -18 2 -50 0 -70z m-4717 -258 c0 -42 -2 -45 -26 -45 -14
0 -34 -5 -45 -10 -15 -8 -21 -7 -25 4 -8 20 54 83 94 95 1 1 2 -19 2 -44z
m5183 -152 c-13 -2 -33 -2 -45 0 -13 2 -3 4 22 4 25 0 35 -2 23 -4z m297 -283
c0 -5 -4 -10 -10 -10 -5 0 -10 5 -10 10 0 6 5 10 10 10 6 0 10 -4 10 -10z
m390 -135 c0 -5 -5 -3 -10 5 -5 8 -10 20 -10 25 0 6 5 3 10 -5 5 -8 10 -19 10
-25z m-6739 -335 c5 0 9 4 9 9 0 5 7 11 14 14 10 4 13 1 10 -8 -7 -17 -30 -26
-48 -19 -9 3 -12 12 -8 22 6 16 7 15 10 0 2 -10 8 -18 13 -18z m-524 -917 c-1
-82 -3 -15 -3 147 0 162 2 229 3 148 2 -82 2 -214 0 -295z m7610 330 c-3 -10
-5 -2 -5 17 0 19 2 27 5 18 2 -10 2 -26 0 -35z m12 -125 c1 -15 -3 -30 -9 -33
-6 -4 -10 16 -9 52 1 44 3 52 9 33 4 -14 8 -37 9 -52z m47 -28 l24 0 0 -1360
c0 -900 -3 -1360 -10 -1360 -5 0 -10 14 -10 30 0 17 -4 30 -10 30 -7 0 -10
448 -10 1324 0 873 -3 1327 -10 1331 -5 3 -9 25 -8 48 l1 42 4 -42 c4 -38 7
-43 29 -43z m-59 -52 c-3 -8 -6 -5 -6 6 -1 11 2 17 5 13 3 -3 4 -12 1 -19z
m20 -20 c-3 -8 -6 -5 -6 6 -1 11 2 17 5 13 3 -3 4 -12 1 -19z m-10 -245 c-2
-16 -4 -3 -4 27 0 30 2 43 4 28 2 -16 2 -40 0 -55z m-7620 -75 c-3 -8 -6 -5
-6 6 -1 11 2 17 5 13 3 -3 4 -12 1 -19z m7632 -1540 c-3 -1151 -7 -1514 -16
-1505 -8 9 -10 389 -6 1542 4 992 9 1521 16 1505 6 -16 8 -589 6 -1542z
m-4586 1498 c3 -8 5 -87 4 -177 0 -90 0 -253 1 -361 l2 -198 183 -2 182 -3 3
-374 c2 -285 5 -377 15 -383 6 -5 80 -8 162 -8 83 1 162 1 178 0 l27 0 0 -363
c0 -269 3 -366 12 -375 8 -8 64 -12 185 -12 l173 0 -2 -377 -3 -378 -182 -3
-183 -2 0 -375 0 -375 184 0 183 0 6 -337 c4 -186 3 -439 -1 -563 l-7 -225
-182 -3 c-101 -1 -184 -3 -185 -5 -1 -1 -4 -85 -7 -187 l-6 -185 -205 -6
c-113 -3 -535 -7 -937 -8 l-733 -1 -2 188 -3 187 -187 3 -188 2 -2 188 -3 187
-185 5 -185 5 -5 185 -5 185 -363 -3 c-274 -3 -366 -1 -377 8 -12 10 -15 46
-15 189 0 97 4 182 8 188 6 9 58 13 182 15 l175 3 0 170 c0 94 2 172 6 175 3
3 9 262 12 577 l7 571 -42 7 c-22 4 -107 6 -187 4 l-146 -4 -8 255 c-11 360 0
1242 16 1252 7 5 64 8 127 8 63 -1 141 -1 173 -1 l57 1 0 185 0 185 193 2 192
3 5 180 5 180 178 2 c99 1 181 4 185 7 3 3 344 6 758 6 633 0 753 -2 757 -14z
m-3046 -158 c-3 -7 -5 -2 -5 12 0 14 2 19 5 13 2 -7 2 -19 0 -25z m0 -195 c-3
-10 -5 -2 -5 17 0 19 2 27 5 18 2 -10 2 -26 0 -35z m3 -373 c0 -5 -5 -10 -11
-10 -5 0 -7 5 -4 10 3 6 8 10 11 10 2 0 4 -4 4 -10z m-2 -947 c-1 -329 -4
-464 -8 -348 -3 105 -8 179 -11 165 -4 -15 -6 0 -6 35 0 51 1 55 7 25 4 -19 8
121 9 313 0 191 3 347 6 347 3 0 4 -242 3 -537z m-41 374 c-2 -23 -3 -1 -3 48
0 50 1 68 3 42 2 -26 2 -67 0 -90z m20 -349 c-1 -46 -3 -9 -3 82 0 91 2 128 3
83 2 -46 2 -120 0 -165z m6 -558 c3 -11 1 -18 -4 -14 -5 3 -9 12 -9 20 0 20 7
17 13 -6z m7 -70 c-8 -5 -17 -7 -19 -4 -3 3 1 9 9 14 8 5 17 7 19 4 3 -3 -1
-9 -9 -14z m360 -177 c0 -181 2 -173 -41 -177 -9 -1 -11 47 -10 168 1 94 4
173 7 177 2 4 13 7 24 6 19 -1 20 -9 20 -174z m-70 -473 c6 0 10 -9 10 -20 0
-11 -4 -20 -9 -20 -5 0 -12 -10 -14 -22 -2 -13 -4 141 -3 342 l1 365 2 -322
c2 -204 7 -323 13 -323z m85 -151 c2 -22 0 -27 -6 -18 -10 16 -12 66 -3 56 4
-4 8 -21 9 -38z m-95 -61 c0 -16 -3 -19 -11 -11 -6 6 -8 16 -5 22 11 17 16 13
16 -11z m-157 -225 c-13 -2 -35 -2 -50 0 -16 2 -5 4 22 4 28 0 40 -2 28 -4z
m-115 -70 l-1 -58 -7 45 c-4 25 -8 34 -8 21 -1 -13 -5 -22 -8 -18 -9 8 6 67
17 67 5 0 8 -26 7 -57z m-128 11 c0 -20 -24 -44 -44 -44 -9 0 -16 -4 -16 -10
0 -5 -4 -10 -10 -10 -5 0 -10 9 -10 20 0 13 7 20 18 20 10 0 24 9 32 20 17 24
30 26 30 4z m100 -99 c-7 -45 -7 -46 -9 -13 -1 32 8 74 14 66 1 -2 -1 -25 -5
-53z m-120 -65 c0 -11 5 -20 10 -20 6 0 10 -9 10 -20 0 -23 10 -26 28 -8 9 9
15 9 24 0 9 -9 7 -12 -10 -12 -15 0 -22 -6 -22 -20 0 -11 5 -20 10 -20 6 0 10
-9 10 -20 0 -11 -4 -20 -10 -20 -5 0 -10 9 -10 20 0 11 -4 20 -10 20 -5 0 -10
9 -10 20 0 11 -4 20 -10 20 -5 0 -10 9 -10 20 0 11 -4 20 -10 20 -5 0 -10 9
-10 20 0 11 5 20 10 20 6 0 10 -9 10 -20z m40 16 c0 -3 -4 -8 -10 -11 -5 -3
-10 -1 -10 4 0 6 5 11 10 11 6 0 10 -2 10 -4z m107 -58 c-2 -13 -4 -3 -4 22 0
25 2 35 4 23 2 -13 2 -33 0 -45z m-20 -90 c-3 -7 -5 -2 -5 12 0 14 2 19 5 13
2 -7 2 -19 0 -25z m7653 -72 c0 -11 -19 -15 -25 -6 -3 5 1 10 9 10 9 0 16 -2
16 -4z m107 -152 c13 -13 14 -17 3 -24 -25 -15 14 -40 64 -40 25 0 46 -4 46
-10 0 -5 -13 -10 -30 -10 -16 0 -30 -4 -30 -10 0 -5 -7 -10 -16 -10 -18 0 -44
24 -44 41 0 6 -9 20 -21 30 -18 15 -19 20 -7 33 16 19 16 19 35 0z m-130 -136
c-3 -8 -6 -5 -6 6 -1 11 2 17 5 13 3 -3 4 -12 1 -19z m368 -38 c-3 -5 -10 -10
-16 -10 -5 0 -9 5 -9 10 0 6 7 10 16 10 8 0 12 -4 9 -10z m402 -82 c-3 -8 -6
-5 -6 6 -1 11 2 17 5 13 3 -3 4 -12 1 -19z m0 -60 c-3 -7 -5 -2 -5 12 0 14 2
19 5 13 2 -7 2 -19 0 -25z m0 -195 c-3 -10 -5 -2 -5 17 0 19 2 27 5 18 2 -10
2 -26 0 -35z m-8079 -100 c-22 -3 -28 -10 -28 -29 0 -13 5 -24 11 -24 6 0 8
-9 4 -20 -3 -11 -2 -20 4 -20 6 0 11 -48 13 -121 3 -110 2 -120 -14 -115 -16
4 -18 -4 -18 -60 0 -36 -4 -64 -10 -64 -5 0 -10 20 -10 45 0 30 -4 45 -13 45
-7 0 -21 10 -31 22 -15 18 -17 25 -7 41 15 24 12 288 -4 299 -5 4 22 7 60 6
39 0 58 -3 43 -5z m81 -148 c1 -86 -1 -172 -5 -192 -14 -72 -23 0 -23 176 0
136 3 171 13 171 11 0 14 -34 15 -155z m8746 126 c3 -5 1 -12 -5 -16 -5 -3
-10 1 -10 9 0 18 6 21 15 7z m62 -42 c3 -16 9 -29 14 -29 5 0 9 -9 9 -20 0
-13 -7 -20 -20 -20 -17 0 -20 7 -20 39 0 25 -5 41 -15 45 -23 8 -18 25 6 19
12 -4 22 -17 26 -34z m-70 -46 c-3 -10 -5 -2 -5 17 0 19 2 27 5 18 2 -10 2
-26 0 -35z m30 5 c-3 -7 -5 -2 -5 12 0 14 2 19 5 13 2 -7 2 -19 0 -25z m-30
-75 c-3 -10 -5 -2 -5 17 0 19 2 27 5 18 2 -10 2 -26 0 -35z m133 -24 c0 -5 -4
-7 -10 -4 -5 3 -10 1 -10 -5 0 -6 -4 -8 -10 -5 -17 10 -11 25 10 25 11 0 20
-5 20 -11z m57 -35 c14 -14 24 -27 22 -28 -23 -20 -46 -23 -64 -9 -14 11 -16
17 -7 20 6 3 12 13 12 24 0 25 6 24 37 -7z m123 -64 c25 -16 38 -30 29 -30 -8
0 -25 9 -37 20 -12 11 -33 20 -47 20 -14 0 -25 5 -25 10 0 19 35 10 80 -20z
m-82 -7 c-10 -2 -28 -2 -40 0 -13 2 -5 4 17 4 22 1 32 -1 23 -4z m-7826 -100
c2 -32 1 -115 -1 -185 l-3 -128 -173 0 -172 0 -5 122 c-3 68 -3 151 0 185 l5
63 172 0 173 0 4 -57z m7988 -35 c0 -50 -2 -89 -5 -87 -8 9 -12 179 -3 179 4
0 8 -41 8 -92z m-3 -230 c-2 -13 -4 -3 -4 22 0 25 2 35 4 23 2 -13 2 -33 0
-45z m-8757 -128 c0 -16 -4 -30 -10 -30 -5 0 -10 14 -10 30 0 17 5 30 10 30 6
0 10 -13 10 -30z m0 -140 c0 -27 -4 -50 -9 -50 -5 0 -9 23 -9 50 0 28 4 50 9
50 5 0 9 -22 9 -50z m333 -577 c-18 -2 -48 -2 -65 0 -18 2 -4 4 32 4 36 0 50
-2 33 -4z m-36 -29 c-3 -3 -12 -4 -19 -1 -8 3 -5 6 6 6 11 1 17 -2 13 -5z m23
-224 c0 -22 5 -40 10 -40 6 0 10 5 10 10 0 6 4 10 8 10 4 0 9 -22 10 -50 1
-28 -2 -50 -8 -50 -5 0 -10 9 -10 20 0 26 -20 26 -27 0 -4 -15 -8 -17 -17 -7
-17 18 -36 79 -36 115 0 29 3 32 30 32 28 0 30 -2 30 -40z m7 -112 c-3 -8 -6
-5 -6 6 -1 11 2 17 5 13 3 -3 4 -12 1 -19z m73 -121 c0 -38 -6 -48 -26 -40
-17 6 -18 39 -1 58 19 23 27 17 27 -18z m347 -244 c-3 -10 -5 -4 -5 12 0 17 2
24 5 18 2 -7 2 -21 0 -30z m-87 -613 c0 -5 -4 -10 -10 -10 -5 0 -10 5 -10 10
0 6 5 10 10 10 6 0 10 -4 10 -10z m857 -332 c-2 -35 -3 -7 -3 62 0 69 1 97 3
63 2 -35 2 -91 0 -125z m156 -3245 c-7 -2 -19 -2 -25 0 -7 3 -2 5 12 5 14 0
19 -2 13 -5z m207 -1 c0 -4 -16 -6 -35 -4 -19 2 -35 6 -35 8 0 2 16 4 35 4 19
0 35 -4 35 -8z m-340 -292 c0 -11 -4 -20 -10 -20 -5 0 -10 -8 -10 -17 0 -11
-3 -14 -10 -7 -7 7 -6 19 2 37 15 32 28 35 28 7z m437 -102 c-2 -13 -4 -5 -4
17 -1 22 1 32 4 23 2 -10 2 -28 0 -40z m-637 32 c0 -5 -4 -10 -10 -10 -5 0
-10 5 -10 10 0 6 5 10 10 10 6 0 10 -4 10 -10z"/>
<path d="M6001 9296 c-8 -9 -11 -66 -9 -182 l3 -169 190 -6 c105 -3 191 -6
193 -7 1 -1 2 -85 2 -186 0 -145 3 -186 14 -195 10 -8 62 -10 181 -6 92 3 171
8 176 11 5 3 9 90 9 195 l0 189 185 0 185 0 0 185 0 185 -559 0 c-463 0 -561
-2 -570 -14z"/>
<path d="M8188 14633 c7 -3 16 -2 19 1 4 3 -2 6 -13 5 -11 0 -14 -3 -6 -6z"/>
<path d="M10258 14633 c12 -2 32 -2 45 0 12 2 2 4 -23 4 -25 0 -35 -2 -22 -4z"/>
<path d="M10530 14600 c0 -5 7 -10 15 -10 8 0 15 5 15 10 0 6 -7 10 -15 10 -8
0 -15 -4 -15 -10z"/>
<path d="M6860 14494 c0 -3 6 -12 14 -20 21 -21 46 -17 46 6 0 16 -7 20 -30
20 -16 0 -30 -3 -30 -6z"/>
<path d="M10360 14480 c0 -11 -4 -20 -10 -20 -5 0 -10 -13 -10 -30 0 -16 5
-30 10 -30 6 0 10 -13 10 -30 0 -23 4 -30 20 -30 11 0 20 5 20 11 0 7 15 10
40 7 23 -2 39 1 37 6 -2 5 -18 11 -35 12 -35 3 -76 34 -54 42 7 2 12 21 12 43
0 32 -3 39 -20 39 -13 0 -20 -7 -20 -20z"/>
<path d="M6813 14465 c-7 -8 -13 -21 -13 -30 0 -8 -4 -15 -10 -15 -17 0 -11
-70 7 -88 12 -12 18 -13 21 -4 4 14 42 16 42 2 0 -6 27 -10 60 -10 33 0 60 4
60 10 0 6 -9 10 -20 10 -11 0 -20 5 -20 10 0 6 -8 10 -18 10 -10 0 -24 9 -32
20 -16 22 -66 27 -73 8 -2 -8 -8 -9 -13 -4 -5 5 -4 11 4 13 6 3 12 18 12 34 0
16 5 29 10 29 6 0 10 5 10 10 0 14 -13 12 -27 -5z"/>
<path d="M7473 14440 c0 -25 2 -35 4 -22 2 12 2 32 0 45 -2 12 -4 2 -4 -23z"/>
<path d="M6720 14410 c0 -5 5 -10 10 -10 6 0 10 5 10 10 0 6 -4 10 -10 10 -5
0 -10 -4 -10 -10z"/>
<path d="M10640 14410 c0 -5 5 -10 10 -10 6 0 10 5 10 10 0 6 -4 10 -10 10 -5
0 -10 -4 -10 -10z"/>
<path d="M10698 14360 c5 -48 22 -43 22 6 0 21 -5 34 -13 34 -9 0 -11 -12 -9
-40z"/>
<path d="M10573 14345 c-18 -20 -16 -25 7 -25 13 0 20 7 20 20 0 23 -10 25
-27 5z"/>
<path d="M10800 14330 c0 -5 18 -10 40 -10 22 0 40 5 40 10 0 6 -18 10 -40 10
-22 0 -40 -4 -40 -10z"/>
<path d="M6728 14313 c7 -3 16 -2 19 1 4 3 -2 6 -13 5 -11 0 -14 -3 -6 -6z"/>
<path d="M7138 14303 c12 -2 32 -2 45 0 12 2 2 4 -23 4 -25 0 -35 -2 -22 -4z"/>
<path d="M11200 14090 c0 -5 5 -10 10 -10 6 0 10 5 10 10 0 6 -4 10 -10 10 -5
0 -10 -4 -10 -10z"/>
<path d="M11340 14090 c0 -5 5 -10 10 -10 6 0 10 5 10 10 0 6 -4 10 -10 10 -5
0 -10 -4 -10 -10z"/>
<path d="M6290 13911 c0 -5 9 -11 19 -14 14 -3 18 -1 14 9 -6 15 -33 19 -33 5z"/>
<path d="M6400 13910 c0 -5 18 -10 40 -10 22 0 40 5 40 10 0 6 -18 10 -40 10
-22 0 -40 -4 -40 -10z"/>
<path d="M11298 13913 c7 -3 16 -2 19 1 4 3 -2 6 -13 5 -11 0 -14 -3 -6 -6z"/>
<path d="M6360 13890 c0 -5 5 -10 10 -10 6 0 10 5 10 10 0 6 -4 10 -10 10 -5
0 -10 -4 -10 -10z"/>
<path d="M6098 13843 c12 -2 32 -2 45 0 12 2 2 4 -23 4 -25 0 -35 -2 -22 -4z"/>
<path d="M6020 13590 c0 -5 5 -10 10 -10 6 0 10 5 10 10 0 6 -4 10 -10 10 -5
0 -10 -4 -10 -10z"/>
<path d="M5964 13495 c-9 -37 2 -41 14 -6 7 18 7 31 2 31 -5 0 -12 -11 -16
-25z"/>
<path d="M11695 13510 c3 -5 8 -10 11 -10 2 0 4 5 4 10 0 6 -5 10 -11 10 -5 0
-7 -4 -4 -10z"/>
<path d="M11840 13430 c0 -5 5 -10 10 -10 6 0 10 5 10 10 0 6 -4 10 -10 10 -5
0 -10 -4 -10 -10z"/>
<path d="M11900 13200 c0 -57 4 -80 13 -80 9 0 11 21 9 80 -2 44 -8 80 -13 80
-5 0 -9 -36 -9 -80z"/>
<path d="M12151 13104 c0 -11 3 -14 6 -6 3 7 2 16 -1 19 -3 4 -6 -2 -5 -13z"/>
<path d="M5248 12753 c6 -2 18 -2 25 0 6 3 1 5 -13 5 -14 0 -19 -2 -12 -5z"/>
<path d="M5040 12450 c0 -5 5 -10 10 -10 6 0 10 5 10 10 0 6 -4 10 -10 10 -5
0 -10 -4 -10 -10z"/>
<path d="M4860 12430 c0 -5 5 -10 10 -10 6 0 10 5 10 10 0 6 -4 10 -10 10 -5
0 -10 -4 -10 -10z"/>
<path d="M4816 12387 c3 -10 9 -15 12 -12 3 3 0 11 -7 18 -10 9 -11 8 -5 -6z"/>
<path d="M4880 12388 c0 -4 16 -8 35 -8 19 0 35 2 35 4 0 2 -16 6 -35 8 -19 2
-35 0 -35 -4z"/>
<path d="M12208 12393 c6 -2 18 -2 25 0 6 3 1 5 -13 5 -14 0 -19 -2 -12 -5z"/>
<path d="M12410 12392 c0 -16 36 -20 55 -6 10 8 14 14 8 14 -7 0 -15 -5 -18
-10 -4 -7 -13 -7 -26 0 -11 6 -19 7 -19 2z"/>
<path d="M4685 12340 c-3 -5 -5 -299 -5 -655 0 -633 0 -645 -19 -645 -14 0
-21 8 -23 28 l-4 27 -9 -29 c-5 -19 -4 -36 4 -47 6 -10 11 -41 11 -68 0 -28 5
-51 12 -53 14 -5 13 -67 -2 -82 -14 -13 -70 44 -70 72 0 10 -6 24 -12 30 -10
10 -10 15 2 22 11 6 17 34 21 92 5 84 3 101 -9 81 -4 -6 -6 262 -4 595 1 333
-1 609 -5 613 -30 30 -32 -9 -34 -724 0 -420 -5 -717 -10 -717 -19 0 -8 -52
16 -75 13 -14 28 -25 32 -25 4 0 8 -77 7 -170 l-1 -170 24 -7 c19 -4 23 -10
19 -27 -3 -11 -6 -90 -6 -173 0 -95 -4 -153 -10 -153 -6 0 -10 60 -10 160 0
100 -4 160 -10 160 -6 0 -10 -60 -10 -160 0 -100 4 -160 10 -160 6 0 10 -60
10 -160 0 -100 4 -160 10 -160 6 0 10 -18 10 -40 0 -40 13 -48 47 -27 14 9 14
67 1 67 -9 0 -8 70 9 483 7 164 10 190 26 198 18 11 24 39 7 39 -5 0 -10 12
-10 26 0 29 -21 54 -44 54 -25 0 -22 -72 4 -90 13 -9 20 -25 19 -45 -1 -23 -3
-25 -6 -7 -4 20 -14 27 -36 23 -12 -2 3 262 15 270 5 3 3 9 -6 12 -20 8 -19
77 1 77 7 0 13 -9 13 -20 0 -11 5 -20 10 -20 6 0 10 -8 10 -18 0 -10 5 -23 11
-29 6 -6 9 -39 7 -82 -1 -39 1 -71 6 -71 5 0 6 54 3 130 -4 77 -3 130 2 130 5
0 11 -4 13 -10 6 -20 10 1478 3 1509 -6 30 -27 41 -40 21z"/>
<path d="M12900 12010 c0 -5 5 -10 10 -10 6 0 10 5 10 10 0 6 -4 10 -10 10 -5
0 -10 -4 -10 -10z"/>
<path d="M4480 11480 c0 -22 5 -40 10 -40 6 0 10 18 10 40 0 22 -4 40 -10 40
-5 0 -10 -18 -10 -40z"/>
<path d="M4816 10715 c3 -54 1 -74 -5 -60 -7 14 -9 -15 -9 -90 l1 -110 8 85
c4 47 12 103 18 125 6 22 6 44 1 50 -5 6 -10 26 -13 45 -2 19 -3 -1 -1 -45z"/>
<path d="M4720 9960 c0 -73 4 -120 10 -120 6 0 10 47 10 120 0 73 -4 120 -10
120 -6 0 -10 -47 -10 -120z"/>
<path d="M4598 9603 c-15 -4 -18 -17 -18 -84 0 -72 -2 -79 -20 -79 -11 0 -20
-4 -20 -10 0 -5 5 -10 10 -10 6 0 10 -7 10 -16 0 -15 23 -44 34 -44 3 0 6 51
6 113 0 75 4 117 12 125 7 7 10 11 8 11 -3 -1 -13 -3 -22 -6z"/>
<path d="M4480 8965 c0 -203 4 -315 10 -315 6 0 10 112 10 315 0 203 -4 315
-10 315 -6 0 -10 -112 -10 -315z"/>
<path d="M4888 9274 c-5 -4 -8 -146 -8 -315 0 -194 -4 -310 -10 -314 -5 -3
-10 -19 -10 -36 0 -26 -3 -29 -30 -29 -16 0 -30 5 -30 10 0 6 -9 10 -20 10
-27 0 -25 18 3 23 21 3 21 4 3 12 -13 6 -21 5 -24 -3 -2 -7 -12 -12 -23 -12
-25 0 -24 -8 3 -31 11 -11 16 -19 10 -19 -16 0 -14 0 -72 -15 -27 -7 -48 -9
-44 -4 3 5 0 9 -5 9 -6 0 -11 -4 -11 -10 0 -5 -7 -10 -16 -10 -20 0 -44 -24
-44 -44 0 -9 7 -16 15 -16 8 0 15 -9 15 -20 0 -11 -7 -20 -15 -20 -8 0 -15 5
-15 10 0 6 -4 10 -10 10 -5 0 -10 -9 -10 -20 0 -13 7 -20 20 -20 11 0 20 -4
20 -10 0 -5 9 -10 19 -10 16 0 18 6 14 38 l-5 38 46 3 c45 2 46 1 46 -29 0
-16 -3 -30 -6 -30 -10 0 -34 28 -34 39 0 6 -4 11 -10 11 -5 0 -10 -9 -10 -20
0 -25 52 -80 58 -62 2 7 15 12 29 12 15 0 36 12 53 30 15 17 33 30 40 30 22 0
40 29 40 64 0 20 5 36 10 36 6 0 10 15 10 34 0 19 5 38 10 41 6 4 10 68 10
160 0 128 2 153 14 149 8 -3 17 -1 21 5 3 7 -2 11 -14 11 -20 0 -21 7 -23 161
-2 88 -6 157 -10 153z m-57 -774 c5 0 9 -4 9 -10 0 -5 -9 -10 -20 -10 -11 0
-20 4 -20 9 0 23 -35 2 -38 -22 -4 -37 -22 -34 -22 3 0 28 11 36 43 31 4 0 7
7 7 17 0 31 14 35 23 8 5 -14 13 -26 18 -26z"/>
<path d="M4963 8903 c-4 -9 -1 -19 5 -21 9 -3 12 -49 12 -163 0 -213 18 -210
22 5 2 90 2 171 0 180 -4 21 -31 21 -39 -1z"/>
<path d="M4500 8490 c0 -5 5 -10 10 -10 6 0 10 5 10 10 0 6 -4 10 -10 10 -5 0
-10 -4 -10 -10z"/>
<path d="M12773 8320 c0 -47 2 -66 4 -42 2 23 2 61 0 85 -2 23 -4 4 -4 -43z"/>
<path d="M4480 8350 c0 -16 5 -30 10 -30 6 0 10 14 10 30 0 17 -4 30 -10 30
-5 0 -10 -13 -10 -30z"/>
<path d="M12640 8350 c0 -16 5 -30 10 -30 6 0 10 14 10 30 0 17 -4 30 -10 30
-5 0 -10 -13 -10 -30z"/>
<path d="M12580 8310 c0 -5 5 -10 10 -10 6 0 10 5 10 10 0 6 -4 10 -10 10 -5
0 -10 -4 -10 -10z"/>
<path d="M12560 8250 c0 -5 5 -10 10 -10 6 0 10 5 10 10 0 6 -4 10 -10 10 -5
0 -10 -4 -10 -10z"/>
<path d="M4560 8229 c0 -5 5 -7 10 -4 6 3 10 8 10 11 0 2 -4 4 -10 4 -5 0 -10
-5 -10 -11z"/>
<path d="M4480 8189 c0 -17 4 -28 10 -24 6 3 10 17 10 31 0 13 -4 24 -10 24
-5 0 -10 -14 -10 -31z"/>
<path d="M12540 8190 c0 -16 5 -30 10 -30 6 0 10 14 10 30 0 17 -4 30 -10 30
-5 0 -10 -13 -10 -30z"/>
<path d="M4540 8080 c0 -33 3 -40 20 -40 17 0 20 7 20 40 0 33 -3 40 -20 40
-17 0 -20 -7 -20 -40z"/>
<path d="M4480 8080 c0 -13 7 -20 20 -20 13 0 20 7 20 20 0 13 -7 20 -20 20
-13 0 -20 -7 -20 -20z"/>
<path d="M12320 8060 c0 -11 5 -20 10 -20 6 0 10 5 10 10 0 6 14 10 30 10 17
0 30 5 30 10 0 6 -18 10 -40 10 -33 0 -40 -3 -40 -20z"/>
<path d="M12450 7830 c0 -5 7 -10 16 -10 8 0 12 5 9 10 -3 6 -10 10 -16 10 -5
0 -9 -4 -9 -10z"/>
<path d="M4480 7761 c0 -45 4 -49 28 -24 12 12 13 18 4 21 -6 2 -12 10 -12 17
0 8 -4 17 -10 20 -6 4 -10 -10 -10 -34z"/>
<path d="M4695 7780 c-3 -11 -13 -20 -21 -20 -8 0 -14 -4 -14 -10 0 -5 9 -10
20 -10 16 0 20 -7 20 -35 0 -19 -4 -35 -10 -35 -6 0 -10 -32 -10 -75 0 -43 4
-75 10 -75 6 0 10 -22 10 -50 0 -27 5 -50 10 -50 6 0 10 70 10 190 0 175 -7
225 -25 170z"/>
<path d="M10173 7794 c-10 -4 -13 -51 -13 -184 0 -162 2 -179 18 -184 27 -8
336 -2 350 7 9 6 12 53 12 176 0 123 -3 171 -12 178 -13 10 -333 16 -355 7z"/>
<path d="M13440 7741 c0 -38 -5 -61 -12 -65 -10 -5 -10 -7 0 -12 6 -3 12 -19
12 -35 l0 -29 80 0 80 0 0 100 0 100 -80 0 -80 0 0 -59z"/>
<path d="M12938 7783 c34 -2 90 -2 125 0 34 2 6 3 -63 3 -69 0 -97 -1 -62 -3z"/>
<path d="M12603 7715 c-27 -29 -28 -35 -7 -35 20 0 44 24 44 44 0 22 -11 19
-37 -9z"/>
<path d="M4480 7521 c0 -101 4 -161 10 -161 6 0 10 58 10 154 0 93 -4 157 -10
161 -7 4 -10 -50 -10 -154z"/>
<path d="M13180 7615 c0 -7 88 -95 95 -95 3 0 5 9 5 20 0 13 7 20 20 20 16 0
20 -7 20 -30 0 -16 5 -30 10 -30 6 0 10 -7 10 -15 0 -20 45 -65 65 -65 8 0 15
-4 15 -10 0 -5 5 -10 10 -10 6 0 10 16 10 35 0 38 -36 85 -65 85 -9 0 -15 9
-15 26 0 33 -21 54 -54 54 -14 0 -26 5 -26 10 0 6 -22 10 -50 10 -27 0 -50 -2
-50 -5z"/>
<path d="M13271 7424 c0 -11 3 -14 6 -6 3 7 2 16 -1 19 -3 4 -6 -2 -5 -13z"/>
<path d="M4760 7410 c0 -5 5 -10 10 -10 6 0 10 5 10 10 0 6 -4 10 -10 10 -5 0
-10 -4 -10 -10z"/>
<path d="M4834 7290 c0 -52 1 -74 3 -47 2 26 2 68 0 95 -2 26 -3 4 -3 -48z"/>
<path d="M4740 7330 c0 -16 5 -30 10 -30 6 0 10 14 10 30 0 17 -4 30 -10 30
-5 0 -10 -13 -10 -30z"/>
<path d="M13380 7330 c0 -16 5 -30 10 -30 6 0 10 14 10 30 0 17 -4 30 -10 30
-5 0 -10 -13 -10 -30z"/>
<path d="M4812 7269 c-1 -9 -5 -32 -8 -50 -5 -26 -4 -31 5 -23 7 7 11 28 8 50
-2 22 -4 32 -5 23z"/>
<path d="M4480 7230 c0 -16 5 -30 10 -30 6 0 10 14 10 30 0 17 -4 30 -10 30
-5 0 -10 -13 -10 -30z"/>
<path d="M4624 7150 c0 -63 1 -89 3 -57 2 31 2 83 0 115 -2 31 -3 5 -3 -58z"/>
<path d="M13720 7190 c0 -6 40 -10 100 -10 60 0 100 4 100 10 0 6 -40 10 -100
10 -60 0 -100 -4 -100 -10z"/>
<path d="M4802 7100 c0 -28 4 -50 9 -50 5 0 9 20 9 44 0 25 -4 47 -9 50 -5 3
-9 -17 -9 -44z"/>
<path d="M4832 7100 c0 -14 2 -19 5 -12 2 6 2 18 0 25 -3 6 -5 1 -5 -13z"/>
<path d="M13458 7113 c12 -2 32 -2 45 0 12 2 2 4 -23 4 -25 0 -35 -2 -22 -4z"/>
<path d="M13658 7113 c7 -3 16 -2 19 1 4 3 -2 6 -13 5 -11 0 -14 -3 -6 -6z"/>
<path d="M13690 7090 c-11 -7 -4 -10 28 -10 23 0 42 5 42 10 0 13 -50 13 -70
0z"/>
<path d="M13955 7090 c3 -5 8 -10 11 -10 2 0 4 5 4 10 0 6 -5 10 -11 10 -5 0
-7 -4 -4 -10z"/>
<path d="M13458 7083 c12 -2 32 -2 45 0 12 2 2 4 -23 4 -25 0 -35 -2 -22 -4z"/>
<path d="M4800 6980 c0 -5 5 -10 10 -10 6 0 10 5 10 10 0 6 -4 10 -10 10 -5 0
-10 -4 -10 -10z"/>
<path d="M14370 6712 c0 -4 4 -12 9 -17 5 -6 11 -19 14 -30 3 -11 5 -4 6 18 1
27 -3 37 -14 37 -8 0 -15 -4 -15 -8z"/>
<path d="M5318 6530 c-24 -27 -23 -76 2 -102 l20 -22 0 27 c0 15 -4 27 -10 27
-14 0 -13 37 1 42 6 2 9 14 7 26 l-3 23 -17 -21z"/>
<path d="M14480 6390 c0 -5 18 -10 40 -10 22 0 40 5 40 10 0 6 -18 10 -40 10
-22 0 -40 -4 -40 -10z"/>
<path d="M14620 6390 c0 -6 50 -10 129 -10 94 0 131 -3 135 -12 5 -10 7 -10
12 0 4 7 27 12 65 12 33 0 59 4 59 10 0 6 -73 10 -200 10 -127 0 -200 -4 -200
-10z"/>
<path d="M15120 6390 c0 -5 9 -10 20 -10 11 0 20 -4 20 -10 0 -5 9 -10 20 -10
13 0 20 7 20 20 0 17 -7 20 -40 20 -22 0 -40 -4 -40 -10z"/>
<path d="M5500 6290 c0 -5 5 -10 10 -10 6 0 10 5 10 10 0 6 -4 10 -10 10 -5 0
-10 -4 -10 -10z"/>
<path d="M5420 6212 c0 -6 -7 -9 -16 -5 -14 5 -15 -11 -8 -153 3 -88 8 -161
10 -163 12 -13 18 19 16 77 -2 37 2 104 9 150 9 63 10 85 1 94 -9 9 -12 9 -12
0z"/>
<path d="M5305 5903 c-4 -10 -6 -82 -6 -160 1 -92 -2 -143 -8 -143 -6 0 -3
-15 6 -35 9 -19 20 -35 24 -35 8 0 35 62 31 73 -1 4 -6 73 -11 153 -8 139 -19
187 -36 147z"/>
<path d="M5440 5500 c0 -11 5 -20 10 -20 6 0 10 9 10 20 0 11 -4 20 -10 20 -5
0 -10 -9 -10 -20z"/>
<path d="M5587 5504 c-14 -14 -7 -20 26 -22 17 -1 40 -5 50 -8 9 -3 17 -1 17
5 0 6 -18 11 -39 11 -22 0 -41 5 -43 11 -2 5 -7 7 -11 3z"/>
<path d="M5280 4960 l0 -200 80 0 c73 0 80 2 80 20 0 13 -7 20 -20 20 -19 0
-20 7 -20 160 0 153 1 160 20 160 13 0 20 7 20 20 0 18 -7 20 -80 20 l-80 0 0
-200z"/>
<path d="M6058 5043 c7 -3 16 -2 19 1 4 3 -2 6 -13 5 -11 0 -14 -3 -6 -6z"/>
<path d="M6480 4375 c0 -309 2 -355 15 -355 13 0 15 46 15 355 0 309 -2 355
-15 355 -13 0 -15 -46 -15 -355z"/>
<path d="M5600 4710 c0 -6 33 -10 80 -10 47 0 80 4 80 10 0 6 -33 10 -80 10
-47 0 -80 -4 -80 -10z"/>
<path d="M5980 4320 c0 -207 4 -320 10 -320 6 0 10 113 10 320 0 207 -4 320
-10 320 -6 0 -10 -113 -10 -320z"/>
<path d="M6300 4090 c0 -5 9 -10 20 -10 11 0 20 5 20 10 0 6 -9 10 -20 10 -11
0 -20 -4 -20 -10z"/>
<path d="M6800 3435 c0 -363 -3 -555 -10 -555 -6 0 -10 -83 -10 -230 0 -126 4
-230 8 -230 4 0 14 20 21 45 13 43 31 61 31 30 0 -8 5 -15 10 -15 6 0 10 -60
10 -160 0 -100 -4 -160 -10 -160 -5 0 -10 -9 -10 -20 0 -18 -3 -19 -20 -10
-20 11 -20 8 -20 -260 0 -173 -4 -270 -10 -270 -14 0 -13 -157 1 -162 14 -5
14 -151 -1 -156 -13 -5 -14 -162 0 -162 6 0 10 26 10 59 0 110 11 181 29 181
14 0 16 21 13 196 -3 190 -3 196 17 201 20 5 21 12 21 164 0 155 0 159 21 159
18 0 20 4 14 28 -5 15 -10 201 -12 415 -2 237 -8 387 -13 387 -6 0 -10 -7 -10
-15 0 -8 -7 -15 -15 -15 -11 0 -15 -19 -18 -82 -2 -46 -3 115 -3 356 1 333 4
440 13 443 9 3 8 14 -5 41 -9 20 -20 39 -24 40 -5 2 -8 73 -8 158 0 96 -4 154
-10 154 -7 0 -10 -192 -10 -555z"/>
<path d="M7002 3640 c-5 -15 -7 -179 -5 -392 3 -256 1 -368 -6 -368 -7 0 -11
-54 -11 -160 0 -103 -4 -160 -10 -160 -7 0 -10 -75 -10 -220 1 -121 -2 -226
-7 -234 -4 -8 -5 -99 -2 -203 4 -103 7 -263 8 -355 1 -147 3 -168 17 -168 15
0 16 34 13 353 -4 441 -2 739 7 760 3 10 15 17 25 17 18 0 19 17 19 558 0 467
-2 561 -14 578 -14 18 -15 18 -24 -6z"/>
<path d="M6910 3429 c0 -132 3 -170 13 -167 9 4 13 49 15 171 2 144 0 167 -13
167 -13 0 -15 -24 -15 -171z"/>
<path d="M7050 2720 c0 -132 3 -160 14 -160 8 0 17 -8 19 -17 3 -10 5 62 6
160 1 171 0 177 -19 177 -19 0 -20 -7 -20 -160z"/>
<path d="M6780 2320 c0 -47 4 -80 10 -80 6 0 10 33 10 80 0 47 -4 80 -10 80
-6 0 -10 -33 -10 -80z"/>
<path d="M7040 2105 c0 -14 5 -25 10 -25 6 0 10 11 10 25 0 14 -4 25 -10 25
-5 0 -10 -11 -10 -25z"/>
<path d="M7053 1720 c0 -25 2 -35 4 -22 2 12 2 32 0 45 -2 12 -4 2 -4 -23z"/>
<path d="M6859 1238 c-1 -68 -1 -176 -1 -240 0 -70 -4 -118 -10 -118 -5 0 -7
-12 -4 -28 4 -17 1 -35 -8 -47 -20 -26 -20 -74 -1 -81 19 -8 9 -24 -14 -24
-24 0 -30 39 -23 143 3 54 1 77 -7 77 -8 0 -11 -47 -11 -160 0 -100 4 -160 10
-160 6 0 10 14 10 30 0 23 5 30 19 30 26 0 36 -17 14 -23 -10 -2 -3 -2 15 0
24 3 32 0 32 -12 0 -9 7 -23 15 -31 13 -13 18 -12 39 10 22 21 24 28 15 58 -5
18 -9 56 -8 83 1 28 1 94 0 149 -1 91 -2 98 -20 93 -27 -7 -31 24 -31 214 0
135 -2 159 -15 159 -12 0 -15 -21 -16 -122z"/>
<path d="M7040 1175 c0 -167 7 -214 24 -169 3 9 6 92 6 185 0 144 -2 169 -15
169 -13 0 -15 -27 -15 -185z"/>
<path d="M6780 1020 c0 -33 4 -60 10 -60 6 0 10 13 10 29 0 16 3 43 6 60 5 24
3 31 -10 31 -13 0 -16 -11 -16 -60z"/>
<path d="M6720 680 c0 -22 5 -40 10 -40 6 0 10 18 10 40 0 22 -4 40 -10 40 -5
0 -10 -18 -10 -40z"/>
<path d="M6720 460 c0 -11 5 -20 10 -20 6 0 10 9 10 20 0 11 -4 20 -10 20 -5
0 -10 -9 -10 -20z"/>
<path d="M6978 473 c12 -2 32 -2 45 0 12 2 2 4 -23 4 -25 0 -35 -2 -22 -4z"/>
<path d="M7380 450 c0 -23 4 -30 20 -30 16 0 20 7 20 30 0 23 -4 30 -20 30
-16 0 -20 -7 -20 -30z"/>
<path d="M7040 410 c0 -5 14 -10 30 -10 17 0 30 5 30 10 0 6 -13 10 -30 10
-16 0 -30 -4 -30 -10z"/>
<path d="M7361 341 c0 -37 3 -61 8 -55 4 5 5 34 1 64 l-7 55 -2 -64z"/>
</g>
</svg>
